<svg xmlns="http://www.w3.org/2000/svg" viewBox="0 0 48 48" id="same-sex-marriage">
  <g>
    <path fill="#fcb143" d="M24,19.79V35.87A2.19,2.19,0,0,1,22,38L5.48,37.82H3.55c-.91,0-1.58-1-1.58-2.14L2,20Z"></path>
    <path fill="#318c49" d="M23.05,36V42.6A3.4,3.4,0,0,1,19.66,46H6.32a3.41,3.41,0,0,1-3.4-3.4V36c0-1.38,1.23-2.6,2.73-3.37a7.11,7.11,0,0,1,3.14-.86h8.39C19.51,31.74,23.05,33.64,23.05,36Z"></path>
    <path fill="#fcd0a3" d="M22.21 15.48v12A4.24 4.24 0 0 1 18 31.74H8a4.24 4.24 0 0 1-4.19-4.28v-12C3.76 13.12 22.21 13.12 22.21 15.48zM8.79 31.74h8.39a0 0 0 0 1 0 0v1.19a3 3 0 0 1-3 3H11.79a3 3 0 0 1-3-3V31.74A0 0 0 0 1 8.79 31.74z"></path>
    <g opacity=".45">
      <path fill="#211915" d="M16.5,46H6.32a3.41,3.41,0,0,1-3.4-3.4V36c0-1.38,1.23-2.6,2.73-3.37C5.63,32.82,4.25,42.19,16.5,46Z" opacity=".43"></path>
    </g>
    <path fill="#fcb143" d="M13,9h0C.74,8.57,2,20,2,20l1.53,2.58c7.13.28,9-5.27,9.44-9.36.43,4,2.33,9.42,9.44,9.33L24,19.79S25.23,8.58,13,9Z"></path>
    <path fill="#211915" d="M19.34,10.21A18.39,18.39,0,0,0,2,25.28V20C2,19.8.85,8.58,13,9A12.55,12.55,0,0,1,19.34,10.21Z" opacity=".15"></path>
    <circle cx="21.79" cy="24.61" r="2.1" fill="#fcd0a3"></circle>
    <circle cx="4.18" cy="24.61" r="2.1" fill="#fcd0a3"></circle>
    <path fill="#b2573f" d="M46,19.79V35.87A2.19,2.19,0,0,1,44,38l-16.56-.18H25.55c-.91,0-1.58-1-1.58-2.14L24,20Z"></path>
    <path fill="#fa9801" d="M45.05,36V42.6A3.4,3.4,0,0,1,41.66,46H28.32a3.41,3.41,0,0,1-3.4-3.4V36c0-1.38,1.23-2.6,2.73-3.37a7.11,7.11,0,0,1,3.14-.86h8.39C41.51,31.74,45.05,33.64,45.05,36Z"></path>
    <path fill="#fcd0a3" d="M44.21 15.48v12A4.24 4.24 0 0 1 40 31.74H30a4.24 4.24 0 0 1-4.19-4.28v-12C25.76 13.12 44.21 13.12 44.21 15.48zM30.79 31.74h8.39a0 0 0 0 1 0 0v1.19a3 3 0 0 1-3 3H33.79a3 3 0 0 1-3-3V31.74A0 0 0 0 1 30.79 31.74z"></path>
    <g opacity=".45">
      <path fill="#211915" d="M38.5,46H28.32a3.41,3.41,0,0,1-3.4-3.4V36c0-1.38,1.23-2.6,2.73-3.37C27.63,32.82,26.94,43.09,38.5,46Z" opacity=".43"></path>
    </g>
    <path fill="#b2573f" d="M35,9h0C22.74,8.57,24,20,24,20l1.53,2.58c7.13.28,9-5.27,9.44-9.36.43,4,2.33,9.42,9.44,9.33L46,19.79S47.23,8.58,35,9Z"></path>
    <path fill="#211915" d="M41.34,10.21A18.39,18.39,0,0,0,24,25.28V20c0-.2-1.15-11.42,11-11A12.55,12.55,0,0,1,41.34,10.21Z" opacity=".15"></path>
    <circle cx="43.79" cy="24.61" r="2.1" fill="#fcd0a3"></circle>
    <circle cx="26.18" cy="24.61" r="2.1" fill="#fcd0a3"></circle>
    <path fill="#0a93a3" d="M32.52,46H15.47a5,5,0,0,1,2.07-1.8,6.26,6.26,0,0,1,2.77-.76h7.38A6.24,6.24,0,0,1,32.52,46Z"></path>
    <path fill="#fcd0a3" d="M32.12 29.41V39.75a3.69 3.69 0 0 1-3.69 3.69H19.57a3.69 3.69 0 0 1-3.69-3.69V29.41C15.88 27.37 32.12 27.37 32.12 29.41zM27.69 43.44v.75A3 3 0 0 1 27 46H21a3 3 0 0 1-.65-1.81v-.75z"></path>
    <g opacity=".45">
      <path fill="#211915" d="M19,46H15.47a5,5,0,0,1,2.07-1.8A1.62,1.62,0,0,0,19,46Z" opacity=".43"></path>
    </g>
    <path fill="#93372b" d="M17,35.54l-1.16-.18c-1.69-3.07-2-6.06-.49-8.86.29-.53,7.75-4.87,13-.81C28.42,25.7,25.57,35.55,17,35.54Z"></path>
    <path fill="#93372b" d="M27,27.93s-.23,6.72,3.86,7.63a9.63,9.63,0,0,0,1.26-.13s4.45-8.26-3.67-9.74Z"></path>
    <circle cx="31.76" cy="37.16" r="1.85" fill="#fcd0a3"></circle>
    <circle cx="16.24" cy="37.16" r="1.85" fill="#fcd0a3"></circle>
    <path fill="#211915" d="M28.4,25.69c-13.82,1-12.54,9.63-12.54,9.63-1.69-3.07-2-6-.47-8.82C15.68,26,23.14,21.63,28.4,25.69Z" opacity=".2"></path>
    <g>
      <path fill="#211915" d="M34.84,27.44a2.89,2.89,0,0,0,2-1,.5.5,0,0,0,0-.71.48.48,0,0,0-.7,0,1.62,1.62,0,0,1-2.65,0,.5.5,0,0,0-.71,0,.51.51,0,0,0,0,.71A2.91,2.91,0,0,0,34.84,27.44Z"></path>
      <path fill="#211915" d="M43.91,11.63c-2-2.16-5-3.17-8.9-3-3.29-.26-6.89.89-8.88,3A9.57,9.57,0,0,0,24,15.41a9.3,9.3,0,0,0-2.1-3.78c-2-2.16-5-3.17-8.9-3-4-.06-6.89.89-8.88,3-3,3.24-2.68,7.87-2.63,8.45h0l0,15.68a2.82,2.82,0,0,0,1,2.21v4.72a3.9,3.9,0,0,0,3.89,3.9H41.66a3.9,3.9,0,0,0,3.89-3.9V37.93a2.79,2.79,0,0,0,1-2V19.86S46.88,14.82,43.91,11.63Zm-2,20.29c3.26-1.12,2.83-4.81,2.83-4.81a2.63,2.63,0,0,0,.79-.47v8.89C45.2,33.94,43.61,32.64,41.88,31.92ZM33.1,37.24a1.34,1.34,0,0,1-.48,1v-2C32.9,36.34,33.1,36.91,33.1,37.24Zm-5.2,8.34a3.74,3.74,0,0,0,.29-1.52,6.39,6.39,0,0,1,3.28,1.52Zm-11.38,0a9,9,0,0,1,3.29-1.52,3.41,3.41,0,0,0,.29,1.52ZM19.57,43a3.2,3.2,0,0,1-3.2-3.19V36a3.09,3.09,0,0,0,.69.09c4.71,0,7.76-2.9,9.58-5.62.34,2.1,1.81,6.3,5,5.57v3.76A3.19,3.19,0,0,1,28.43,43Zm-4.2-4.77a1.36,1.36,0,0,1-.47-1c0-.34.19-.85.47-1ZM2.47,35.53V26.66a2.55,2.55,0,0,0,.78.46v.42a4.81,4.81,0,0,0,2.83,4.39,5.79,5.79,0,0,0-.67.31A5.09,5.09,0,0,0,2.47,35.53Zm19.24-12.4v.51c-.4,0-4.74.55-6.75,2.69a.5.5,0,0,0-.79-.58,1.62,1.62,0,0,1-2.65,0,.5.5,0,0,0-.71,0,.51.51,0,0,0,0,.71,2.87,2.87,0,0,0,2,1A2.88,2.88,0,0,0,15,26.35a8.14,8.14,0,0,0-1,5H8a3.74,3.74,0,0,1-3.69-3.78V23.17c4.48-.08,7.51-2.55,8.73-7.1C14.23,20.48,17.26,22.93,21.71,23.13Zm7,3.22a5,5,0,0,1,3.63,2.46c1.09,2.27-.2,5.36-.61,6.23a1.77,1.77,0,0,1-.84.11c-2.74-.61-3.31-4.37-3.43-6A19.19,19.19,0,0,0,28.73,26.35ZM17.07,35.12,16.2,35c-1.59-3-1.71-5.74-.41-8.12.37-.4,7-4.34,12-.91C27.29,27.56,24.39,35.11,17.07,35.12Zm8.19-11.33-.33-.07a1.26,1.26,0,0,1,.33-.32Zm-2.55-.23V23.4a1.56,1.56,0,0,1,.2.16ZM3.26,26a1.56,1.56,0,0,1,0-2.58Zm6,6.34h4.85a12,12,0,0,0,1,2.84,2.44,2.44,0,0,0-.43.28,2.69,2.69,0,0,1-.57.07H11.79A2.5,2.5,0,0,1,9.29,33ZM32.8,35.15a12.52,12.52,0,0,0,.86-2.83h5V33a2.51,2.51,0,0,1-2.5,2.5H33.79A1.9,1.9,0,0,1,32.8,35.15ZM45.39,24.69A1.61,1.61,0,0,1,44.71,26V23.41A1.59,1.59,0,0,1,45.39,24.69Zm.11-2a4.1,4.1,0,0,0-.4-.29l.4-.69ZM43.17,12.3C45.72,15,45.55,19,45.5,19.72l-1.37,2.42c-6.36-.06-8.22-4.85-8.65-8.88l-.39-3.67C38.68,9.48,41.4,10.39,43.17,12.3ZM35,16.07c1.24,4.41,4.26,6.86,8.72,7.06v4.41A3.75,3.75,0,0,1,40,31.32H33.77a5.92,5.92,0,0,0-.51-2.94c-.77-1.6-2.34-2.63-4.66-3.08a8.59,8.59,0,0,0-2.34-1.23v-.9C30.74,23.09,33.77,20.62,35,16.07ZM26.86,12.3c1.77-1.9,4.44-2.81,8-2.71l-.38,3.67c-.44,4.21-2.33,9.16-8.93,8.91a1.83,1.83,0,0,0-1.07.57s0-3.33,0-4.48A9.8,9.8,0,0,1,26.86,12.3Zm-5.69,0a9.75,9.75,0,0,1,2.33,5.94c0,1,0,4.5,0,4.5a1.66,1.66,0,0,0-1.23-.6c-6.46,0-8.34-4.82-8.78-8.88l-.39-3.67C16.68,9.48,19.4,10.39,21.17,12.3Zm-16.31,0c1.76-1.9,4.45-2.81,8-2.71l-.38,3.67c-.44,4.19-2.32,9.1-8.83,8.91a2.06,2.06,0,0,0-1.17.55V20C2.5,20,2,15.36,4.86,12.3ZM3.42,42.68V36.05c0-1.23,1.26-2.32,2.46-2.93a7.09,7.09,0,0,1,2.41-.76V33a3.5,3.5,0,0,0,3.5,3.5H14a2.24,2.24,0,0,0-.12.73,2.36,2.36,0,0,0,1.47,2.18v.41a4.19,4.19,0,0,0,2.42,3.78,5.72,5.72,0,0,0-2.57,2H7.74V39a.41.41,0,0,0-.42-.42A.42.42,0,0,0,6.9,39v6.63H6.31A2.9,2.9,0,0,1,3.42,42.68Zm17.79,2.9a3.45,3.45,0,0,1-.4-1.56h6.38a2.7,2.7,0,0,1-.41,1.56Zm23.34-2.9a2.9,2.9,0,0,1-2.89,2.9h-.6V39a.41.41,0,0,0-.42-.42.42.42,0,0,0-.42.42v6.63H32.77a6.07,6.07,0,0,0-2.56-2,4.19,4.19,0,0,0,2.41-3.78v-.41a2.35,2.35,0,0,0,1.48-2.18,2.54,2.54,0,0,0-.12-.73h2.2a3.5,3.5,0,0,0,3.5-3.5v-.66c2.06.24,4.87,1.83,4.87,3.7Z"></path>
      <path fill="#211915" d="M25,38.13a1.36,1.36,0,0,1-2.25,0,.5.5,0,1,0-.71.71,2.63,2.63,0,0,0,1.84.89,2.62,2.62,0,0,0,1.83-.89.5.5,0,1,0-.71-.71Z"></path>
    </g>
  </g>
</svg>
